<svg width="44" height="44" viewBox="0 0 44 44" fill="none" xmlns="http://www.w3.org/2000/svg">
<rect width="44" height="44" rx="8" fill="#E7E7E7"/>
<path fill-rule="evenodd" clip-rule="evenodd" d="M11.25 14.5C11.25 14.0858 11.5858 13.75 12 13.75H32C32.4142 13.75 32.75 14.0858 32.75 14.5V29.5C32.75 29.9142 32.4142 30.25 32 30.25H12C11.5858 30.25 11.25 29.9142 11.25 29.5V14.5ZM12.75 15.25V28.75H31.25V15.25H12.75Z" fill="#222222"/>
<path fill-rule="evenodd" clip-rule="evenodd" d="M11.4 14.05C11.6486 13.7187 12.1187 13.6515 12.45 13.9L22 21.0625L31.55 13.9C31.8814 13.6515 32.3515 13.7187 32.6 14.05C32.8486 14.3814 32.7814 14.8515 32.45 15.1L22.45 22.6C22.1834 22.8 21.8167 22.8 21.55 22.6L11.55 15.1C11.2187 14.8515 11.1515 14.3814 11.4 14.05Z" fill="#222222"/>
<path fill-rule="evenodd" clip-rule="evenodd" d="M11.25 14.5C11.25 14.0858 11.5858 13.75 12 13.75H22C22.4142 13.75 22.75 14.0858 22.75 14.5C22.75 14.9142 22.4142 15.25 22 15.25H12.75V22C12.75 22.4142 12.4142 22.75 12 22.75C11.5858 22.75 11.25 22.4142 11.25 22V14.5Z" fill="#222222"/>
<path fill-rule="evenodd" clip-rule="evenodd" d="M21.25 14.5C21.25 14.0858 21.5858 13.75 22 13.75H32C32.4142 13.75 32.75 14.0858 32.75 14.5V22C32.75 22.4142 32.4142 22.75 32 22.75C31.5858 22.75 31.25 22.4142 31.25 22V15.25H22C21.5858 15.25 21.25 14.9142 21.25 14.5Z" fill="#222222"/>
</svg>
