<svg width="20" height="21" viewBox="0 0 20 21" fill="none" xmlns="http://www.w3.org/2000/svg">
<path fill-rule="evenodd" clip-rule="evenodd" d="M1.04102 4.25C1.04102 3.90482 1.32084 3.625 1.66602 3.625H18.3327C18.6779 3.625 18.9577 3.90482 18.9577 4.25V16.75C18.9577 17.0952 18.6779 17.375 18.3327 17.375H1.66602C1.32084 17.375 1.04102 17.0952 1.04102 16.75V4.25ZM2.29102 4.875V16.125H17.7077V4.875H2.29102Z" fill="#242B35"/>
<path fill-rule="evenodd" clip-rule="evenodd" d="M1.16605 3.87504C1.37316 3.59889 1.76491 3.54293 2.04105 3.75004L9.99939 9.71879L17.9577 3.75004C18.2339 3.54293 18.6256 3.59889 18.8327 3.87504C19.0398 4.15118 18.9839 4.54293 18.7077 4.75004L10.3744 11C10.1522 11.1667 9.84661 11.1667 9.62439 11L1.29105 4.75004C1.01491 4.54293 0.958946 4.15118 1.16605 3.87504Z" fill="#242B35"/>
<path fill-rule="evenodd" clip-rule="evenodd" d="M1.04102 4.25C1.04102 3.90482 1.32084 3.625 1.66602 3.625H9.99935C10.3445 3.625 10.6243 3.90482 10.6243 4.25C10.6243 4.59518 10.3445 4.875 9.99935 4.875H2.29102V10.5C2.29102 10.8452 2.01119 11.125 1.66602 11.125C1.32084 11.125 1.04102 10.8452 1.04102 10.5V4.25Z" fill="#242B35"/>
<path fill-rule="evenodd" clip-rule="evenodd" d="M9.37435 4.25C9.37435 3.90482 9.65417 3.625 9.99935 3.625H18.3327C18.6779 3.625 18.9577 3.90482 18.9577 4.25V10.5C18.9577 10.8452 18.6779 11.125 18.3327 11.125C17.9875 11.125 17.7077 10.8452 17.7077 10.5V4.875H9.99935C9.65417 4.875 9.37435 4.59518 9.37435 4.25Z" fill="#242B35"/>
</svg>
