<svg width="44" height="44" viewBox="0 0 44 44" fill="none" xmlns="http://www.w3.org/2000/svg">
<rect width="44" height="44" rx="8" fill="#E7E7E7"/>
<path d="M15.8592 14.7196C15.0529 14.7196 14.55 15.4421 14.7803 16.1247C15.6062 18.5724 17.1452 22.2544 19.4404 24.5496C21.7355 26.8448 25.4176 28.3838 27.8653 29.2097C28.5479 29.44 29.2704 28.9371 29.2704 28.1308V25.6454C29.2704 25.5565 29.2222 25.4746 29.1445 25.4314L26.9796 24.2278C26.9089 24.1885 26.8234 24.1866 26.7511 24.2228L24.4423 25.3771C24.298 25.4493 24.1339 25.4719 23.9753 25.4415L24.1137 24.7199C23.9753 25.4415 23.9753 25.4415 23.9753 25.4415L23.9732 25.4411L23.9705 25.4406L23.9631 25.4391L23.9409 25.4345C23.9229 25.4307 23.8986 25.4253 23.8683 25.4181C23.8079 25.4038 23.7238 25.3825 23.6202 25.3526C23.4133 25.2929 23.1266 25.1984 22.7935 25.0564C22.13 24.7737 21.2639 24.2948 20.4795 23.5105C19.6953 22.7262 19.215 21.8589 18.931 21.1945C18.7883 20.8608 18.6931 20.5736 18.6329 20.3663C18.6027 20.2625 18.5812 20.1783 18.5667 20.1178C18.5595 20.0875 18.554 20.0632 18.5501 20.0452L18.5455 20.023L18.544 20.0157L18.5434 20.0129L18.5432 20.0118C18.5432 20.0118 18.543 20.0108 19.2643 19.8705L18.5432 20.0118C18.5123 19.8527 18.5346 19.6869 18.6071 19.5419L19.7616 17.2328C19.7977 17.1606 19.7959 17.0751 19.7567 17.0044L18.5583 14.8457C18.5151 14.7678 18.433 14.7196 18.3441 14.7196H15.8592ZM20.0437 19.9548L20.0441 19.956C20.0903 20.1151 20.1663 20.3454 20.2823 20.6168C20.5156 21.1624 20.9027 21.8553 21.5187 22.4713M21.5187 22.4713C22.1346 23.0872 22.8258 23.4728 23.3696 23.7045C23.64 23.8197 23.8695 23.895 24.0278 23.9407L26.0938 22.9084C26.6002 22.6551 27.1989 22.6683 27.6937 22.9433L29.8585 24.1469C30.4027 24.4494 30.74 25.023 30.74 25.6454V28.1308C30.74 29.8558 29.1113 31.1811 27.3955 30.6021C24.9171 29.7659 20.9526 28.1402 18.4012 25.5888C15.8498 23.0374 14.2241 19.0729 13.3878 16.5946C12.8089 14.8787 14.1342 13.25 15.8592 13.25H18.3441C18.967 13.25 19.5408 13.5878 19.8431 14.1323L21.0416 16.2911C21.3161 16.7857 21.3291 17.384 21.076 17.8901L20.0437 19.9548" fill="#222222"/>
</svg>
